<svg width="90" height="88" viewBox="0 0 90 88" fill="none" xmlns="http://www.w3.org/2000/svg">
<path d="M75.9375 11H2.8125V66H75.9375V11ZM70.3125 60.5H8.4375V16.5H70.3125V60.5Z" fill="#160D2F"/>
<path d="M81.5625 24.75V71.5H16.875V77H87.1875V24.75H81.5625Z" fill="#160D2F"/>
<path d="M39.375 51.9853C46.3535 51.9853 52.0312 45.9461 52.0312 38.523C52.0312 31.0999 46.3535 25.0607 39.375 25.0607C32.3965 25.0607 26.7188 31.0998 26.7188 38.523C26.7188 45.9463 32.3965 51.9853 39.375 51.9853ZM39.375 30.5608C43.252 30.5608 46.4062 34.1327 46.4062 38.523C46.4062 42.9134 43.252 46.4853 39.375 46.4853C35.498 46.4853 32.3438 42.9134 32.3438 38.523C32.3438 34.1327 35.498 30.5608 39.375 30.5608ZM14.0625 23.375H19.6875V53.625H14.0625V23.375ZM59.0625 23.375H64.6875V53.625H59.0625V23.375Z" fill="#160D2F"/>
</svg>
